<svg id="Layer_1" data-name="Layer 1" xmlns="http://www.w3.org/2000/svg" viewBox="0 0 605.5 195"><defs><style>.cls-1{fill:none;stroke:#9d9c98;stroke-width:2px;}.cls-1,.cls-2{stroke-miterlimit:10;}.cls-2{fill:#fff;stroke:#000;}.cls-3{font-size:12px;}.cls-3,.cls-7{font-family:Hack-Regular, Hack;}.cls-4{fill:#9d9c98;}.cls-5{font-size:10px;font-family:Hack-Bold, Hack;}.cls-6{font-weight:700;}</style></defs><title>data_flow</title><line class="cls-1" x1="121.53" y1="63.27" x2="191.53" y2="63.27"/><line class="cls-1" x1="121.53" y1="50.13" x2="191.53" y2="50.13"/><polyline class="cls-1" points="191.53 161.98 53.53 161.98 53.53 81.7"/><polyline class="cls-1" points="191.53 147.16 70.48 147.16 70.48 81.7"/><rect class="cls-2" x="191.53" y="31.7" width="120" height="50"/><text class="cls-3" transform="translate(204.57 60.85)">01_notebooks/</text><rect class="cls-2" x="1.53" y="31.7" width="120" height="50"/><text class="cls-3" transform="translate(32.63 60.85)">00_data/</text><rect class="cls-2" x="191.53" y="126.5" width="120" height="50"/><text class="cls-3" transform="translate(211.8 155.65)">02_scripts/</text><rect class="cls-2" x="483.52" y="31.7" width="120" height="50"/><text class="cls-3" transform="translate(503.79 60.85)">03_figures/</text><line class="cls-1" x1="311.53" y1="56.7" x2="483.52" y2="56.7"/><polygon class="cls-4" points="164.03 56.94 161.34 63.27 164.03 69.6 149.03 63.27 164.03 56.94"/><polygon class="cls-4" points="397.53 63.03 400.21 56.7 397.53 50.37 412.53 56.7 397.53 63.03"/><polygon class="cls-4" points="116.19 155.65 113.5 161.98 116.19 168.31 101.19 161.98 116.19 155.65"/><polygon class="cls-4" points="245.2 96.6 251.53 99.29 257.86 96.6 251.53 111.6 245.2 96.6"/><text class="cls-5" transform="translate(320.15 43.32)"><tspan class="cls-6">notebooks </tspan><tspan class="cls-7" x="60.21" y="0">generate figures</tspan></text><text class="cls-5" transform="translate(90.62 11.83)"><tspan class="cls-6">notebooks </tspan><tspan class="cls-7" x="60.21" y="0">perform small-scale </tspan><tspan class="cls-7"><tspan x="0" y="12">data transformation</tspan></tspan></text><text class="cls-5" transform="translate(260 101.73)"><tspan class="cls-6">notebooks </tspan><tspan class="cls-7" x="60.21" y="0">write large-scale</tspan><tspan class="cls-7"><tspan x="0" y="12">data transformations to scripts </tspan></tspan></text><polygon class="cls-4" points="149.03 56.46 151.72 50.13 149.03 43.8 164.03 50.13 149.03 56.46"/><line class="cls-1" x1="251.53" y1="81.7" x2="251.53" y2="126.5"/><text class="cls-5" transform="translate(17 178.5)"><tspan class="cls-6">scripts </tspan><tspan class="cls-7" x="48.16" y="0">perform large-scale </tspan><tspan class="cls-7"><tspan x="0" y="12">data transformations</tspan></tspan></text><polygon class="cls-4" points="101.19 153.49 103.88 147.16 101.19 140.83 116.19 147.16 101.19 153.49"/></svg>